<svg width="43" height="40" viewBox="0 0 43 40" fill="none" xmlns="http://www.w3.org/2000/svg">
<path fill-rule="evenodd" clip-rule="evenodd" d="M21.3022 17.3109V14.6482V17.3109Z" fill="#8958A3"/>
<path d="M21.3022 17.3109V14.6482" stroke="#8958A3" stroke-width="1.33139" stroke-linecap="square"/>
<path fill-rule="evenodd" clip-rule="evenodd" d="M40.6073 35.9504C40.6073 25.2885 31.9641 16.6453 21.3022 16.6453C10.6403 16.6453 1.99707 25.2885 1.99707 35.9504H40.6073Z" fill="#41197F"/>
<path d="M21.3022 19.9737C15.0367 19.9737 9.6135 23.5804 6.99561 28.8309" stroke="white" stroke-width="1.33139" stroke-linecap="round"/>
<path d="M40.9402 35.9504H1.66423C0.745103 35.9504 0 36.6955 0 37.6146C0 38.5337 0.745103 39.2788 1.66423 39.2788H40.9402C41.8593 39.2788 42.6044 38.5337 42.6044 37.6146C42.6044 36.6955 41.8593 35.9504 40.9402 35.9504Z" fill="#8958A3"/>
<path fill-rule="evenodd" clip-rule="evenodd" d="M18.6394 13.3168H23.965V15.3139H18.6394V13.3168Z" fill="#41197F"/>
<path fill-rule="evenodd" clip-rule="evenodd" d="M30.3206 0C27.716 0 25.6045 1.57238 25.6045 4.76379C25.6045 7.95521 32.725 15.1321 33.9271 15.1321C35.1293 15.1321 42.2498 7.95521 42.2498 4.76379C42.2498 1.57238 40.1383 0 37.5336 0C36.0868 0 34.7922 0.658024 33.9271 1.69394C33.062 0.658024 31.7674 0 30.3206 0Z" fill="#E44343"/>
<path d="M30.7187 2.27313C29.0139 2.27313 27.3091 3.97798 28.4456 6.2511" stroke="white" stroke-width="1.51321" stroke-linecap="round"/>
</svg>
